<?xml version="1.0" encoding="utf-8"?>
<!-- Generator: Adobe Illustrator 16.0.0, SVG Export Plug-In . SVG Version: 6.00 Build 0)  -->
<!DOCTYPE svg PUBLIC "-//W3C//DTD SVG 1.1//EN" "http://www.w3.org/Graphics/SVG/1.1/DTD/svg11.dtd">
<svg version="1.1" id="Layer_1" xmlns="http://www.w3.org/2000/svg" xmlns:xlink="http://www.w3.org/1999/xlink" x="0px" y="0px"
	 width="1024px" height="768px" viewBox="0 0 1024 768" enable-background="new 0 0 1024 768" xml:space="preserve">
<g>
	<rect x="440" y="218" fill="#797900" width="27" height="28"/>
	<rect x="467" y="218" fill="#797900" width="27" height="28"/>
	<rect x="494" y="218" fill="#797900" width="27" height="28"/>
	<rect x="440" y="246" fill="#FFFF0E" width="27" height="28"/>
	<rect x="467" y="246" fill="#FFFFFF" width="27" height="28"/>
	<rect x="494" y="246" fill="#FFFF8B" width="27" height="28"/>
	<rect x="521" y="246" fill="#494913" width="27" height="28"/>
	<rect x="413" y="246" fill="#797900" width="27" height="28"/>
	<rect x="440" y="274" fill="#FFFFFF" width="27" height="28"/>
	<rect x="467" y="274" fill="#FFFF8B" width="27" height="28"/>
	<rect x="494" y="274" fill="#FFFF00" width="27" height="28"/>
	<rect x="521" y="274" fill="#DEDE01" width="27" height="28"/>
	<rect x="548" y="274" fill="#494913" width="27" height="28"/>
	<rect x="467" y="330" fill="#FFFF00" width="27" height="28"/>
	<rect x="494" y="330" fill="#DEDE01" width="27" height="28"/>
	<rect x="467" y="358" fill="#DEDE01" width="27" height="28"/>
	<rect x="521" y="330" fill="#494913" width="27" height="28"/>
	<rect x="413" y="274" fill="#797900" width="27" height="28"/>
	<rect x="440" y="302" fill="#FFFFFF" width="27" height="28"/>
	<rect x="467" y="302" fill="#FFFF8B" width="27" height="28"/>
	<rect x="494" y="302" fill="#FFFF00" width="27" height="28"/>
	<rect x="521" y="302" fill="#DC7613" width="27" height="28"/>
	<rect x="548" y="302" fill="#494913" width="27" height="28"/>
	<rect x="494" y="358" fill="#DC7613" width="27" height="28"/>
	<rect x="521" y="358" fill="#494913" width="27" height="28"/>
	<rect x="413" y="302" fill="#797900" width="27" height="28"/>
	<rect x="440" y="330" fill="#797900" width="27" height="28"/>
	<rect x="440" y="358" fill="#797900" width="27" height="28"/>
	<rect x="467" y="386" fill="#DEDE01" width="27" height="28"/>
	<rect x="494" y="386" fill="#DC7613" width="27" height="28"/>
	<rect x="521" y="386" fill="#494913" width="27" height="28"/>
	<rect x="494" y="414" fill="#494913" width="27" height="28"/>
	<rect x="440" y="386" fill="#797900" width="27" height="28"/>
	<rect x="467" y="414" fill="#797900" width="27" height="28"/>
</g>
<text transform="matrix(1 0 0 1 324 555)" fill="#DEDE01" font-family="'Flama-Light'" font-size="104">sluice.js</text>
</svg>
